# xmcd
#
# Track frame offsets:
#	150
#	13517
#	27117
#	38087
#	51002
#	66225
#	82425
#	98770
#	115052
#	130470
#	145492
#	158905
#	173725
#	187200
#	199947
#	212797
#	224645
#	236727
#	247457
#	259780
#
# Disc length: 3603
#
# Revision: 1
# Processed by: cddbd v1.5.1PL0 Copyright (c) Steve Scherf et al.
# Submitted via: dBpowerAMP V4.0
# Normalized: r0:TDELIM( - ),TSWAP
#
DISCID=3b0e1114
DTITLE=Various Artist - Super Stars of Soul
DYEAR=1997
DGENRE=Soul
TTITLE0=Ben E King - Spanish harlem
TTITLE1=Ben E King - Stand by me
TTITLE2=Ben E King - I (Who have nothing)
TTITLE3=Ben E King - Don't play thet song (you lied)
TTITLE4=Ben E King - Supernatural thing
TTITLE5=Harold Melvin and the Bluenotes - Wake up everybody
TTITLE6=Harold Melvin and the Bluenotes - If you don't know me by now
TTITLE7=Harold Melvin and the Bluenotes - The love I lost
TTITLE8=Harold Melvin and the Bluenotes - Bad luck
TTITLE9=Harold Melvin and the Bluenotes - Satisfaction guaranteed(or take your love back)
TTITLE10=Percy Sledge - When a man loves a woman
TTITLE11=Percy Sledge - Warm and tender love
TTITLE12=Percy Sledge - Take time to know her
TTITLE13=Percy Sledge - It tears me up
TTITLE14=Percy Sledge - Cover me
TTITLE15=Sam and Dave - Soul man
TTITLE16=Sam and Dave - Hold on I'm comin'
TTITLE17=Sam and Dave - Soul sister, brown sugar
TTITLE18=Sam and Dave - I thenk you
TTITLE19=Sam and Dave - Sweet soul music
EXTD=
EXTT0=
EXTT1=
EXTT2=
EXTT3=
EXTT4=
EXTT5=
EXTT6=
EXTT7=
EXTT8=
EXTT9=
EXTT10=
EXTT11=
EXTT12=
EXTT13=
EXTT14=
EXTT15=
EXTT16=
EXTT17=
EXTT18=
EXTT19=
PLAYORDER=
